<svg width="333" height="317" viewBox="0 0 333 317" fill="none" xmlns="http://www.w3.org/2000/svg">
<path d="M187.03 171.765C200.873 145.731 218.72 125.015 236.363 112.56C254.031 100.087 271.356 95.9833 284.267 102.848C297.178 109.713 303.464 126.371 303.003 147.994C302.543 169.584 295.349 195.965 281.506 221.999C267.663 248.033 249.816 268.749 232.174 281.204C214.505 293.678 197.181 297.781 184.269 290.916C171.358 284.051 165.072 267.394 165.533 245.771C165.994 224.18 173.188 197.8 187.03 171.765Z" stroke="#44FFA1"/>
<path d="M151.03 152.765C164.873 126.731 182.72 106.015 200.363 93.5603C218.031 81.0867 235.356 76.9833 248.267 83.8483C261.178 90.7132 267.464 107.371 267.003 128.994C266.543 150.584 259.349 176.965 245.506 202.999C231.663 229.033 213.816 249.749 196.174 262.204C178.505 274.678 161.181 278.781 148.269 271.916C135.358 265.051 129.072 248.394 129.533 226.771C129.994 205.18 137.188 178.8 151.03 152.765Z" stroke="#44FFA1"/>
<path opacity="0.75" d="M116.913 134.235C130.757 108.199 148.506 87.4302 165.99 74.8901C183.502 62.3296 200.604 58.1153 213.267 64.8483C225.93 71.5813 231.999 88.1157 231.379 109.658C230.759 131.165 223.466 157.494 209.623 183.529C195.78 209.565 178.03 230.334 160.546 242.874C143.034 255.435 125.932 259.649 113.269 252.916C100.607 246.183 94.5373 229.649 95.1576 208.107C95.777 186.599 103.07 160.27 116.913 134.235Z" stroke="#44FFA1"/>
<path opacity="0.5" d="M80.0305 113.765C93.8732 87.7311 111.72 67.0153 129.363 54.5603C147.031 42.0867 164.356 37.9833 177.267 44.8483C190.178 51.7132 196.464 68.3706 196.003 89.9935C195.543 111.584 188.349 137.965 174.506 163.999C160.663 190.033 142.816 210.749 125.174 223.204C107.505 235.678 90.1805 239.781 77.2694 232.916C64.3583 226.051 58.0724 209.394 58.5334 187.771C58.9936 166.18 66.1877 139.8 80.0305 113.765Z" stroke="#44FFA1"/>
<path opacity="0.25" d="M43.9134 95.2349C57.7568 69.1994 75.5061 48.4302 92.9901 35.8901C110.502 23.3296 127.604 19.1153 140.267 25.8483C152.93 32.5813 158.999 49.1157 158.379 70.6578C157.759 92.1651 150.466 118.494 136.623 144.529C122.78 170.565 105.03 191.334 87.5463 203.874C70.0339 216.435 52.9324 220.649 40.2694 213.916C27.6065 207.183 21.5373 190.649 22.1576 169.107C22.777 147.599 30.0701 121.27 43.9134 95.2349Z" stroke="#44FFA1"/>
</svg>
